<?xml version="1.0" encoding="UTF-8"?>
<svg id="Camada_2" data-name="Camada 2" xmlns="http://www.w3.org/2000/svg" viewBox="0 0 159.27 245.23">
  <defs>
    <style>
      .cls-1 {
        fill: #1d1d1b;
      }
    </style>
  </defs>
  <path class="cls-1" d="M159.27,180.94c0,11.92-4.02,23.09-11.04,32.66-13.27,18.13-37.26,30.55-64.92,31.55-1.22.06-2.44.08-3.68.08H0v-64.29c0-22.45,14.27-42.22,35.86-53.71v-.16c11.23-5.95,24.43-9.66,38.65-10.36l19.11,30.9c-4.45-1.24-9.22-1.91-14.19-1.91-22.71,0-41.36,14.03-43.38,31.94v3.3c0,19.43,19.52,35.18,43.58,35.18s43.58-15.75,43.58-35.18c0-5.04-1.31-9.83-3.68-14.16l.12-.05-30.26-49.6-5.06-8.29-20.36-33.39-15.38-25.23c-1.32-2.28-3.56-3.32-5.78-3.32-3.4,0-6.76,2.37-6.76,6.32v53.47c0,5.5-4.71,9.96-10.52,9.96h-15.01c-5.81,0-10.52-4.46-10.52-9.96V9.65c0-2.67,1.14-5.08,2.98-6.82C4.83,1.08,7.38,0,10.19,0h102.82c5.63,0,10.2,4.32,10.2,9.65v14.83c0,5.33-4.57,9.65-10.2,9.65h-11c-9.6,0-15.58,9.81-10.82,17.67.01.01.01.02.02.03l60.3,98.87c5.29,8.64,7.76,18.97,7.76,30.24Z"/>
</svg>