<?xml version="1.0" encoding="UTF-8"?>
<svg id="Camada_2" data-name="Camada 2" xmlns="http://www.w3.org/2000/svg" viewBox="0 0 159.27 245.23">
  <defs>
    <style>
      .cls-1 {
        fill: #1d1d1b;
      }
    </style>
  </defs>
  <path class="cls-1" d="M159.27,180.94c0,11.92-4.02,23.09-11.04,32.66l-.11-.18-28.47-46.69-30.26-49.6-.02-.04-5.04-8.25-35.74-58.61c-1.31-2.29-3.56-3.33-5.78-3.33-3.4,0-6.76,2.37-6.76,6.32v53.47c0,5.5-4.71,9.96-10.52,9.96h-15.01c-5.81,0-10.52-4.46-10.52-9.96V9.65C0,4.32,4.56,0,10.19,0h49.41l31.59,51.8,7.7,12.62,52.62,86.28c5.29,8.64,7.76,18.97,7.76,30.24Z"/>
  <path class="cls-1" d="M93.62,147.61c-4.45-1.24-9.22-1.91-14.19-1.91-22.71,0-41.36,14.03-43.38,31.94v67.59H0v-64.29c0-22.45,14.27-42.22,35.86-53.71v-.16c11.23-5.95,24.43-9.66,38.65-10.36l19.11,30.9Z"/>
</svg>