<?xml version="1.0" encoding="UTF-8"?>
<svg id="Camada_2" data-name="Camada 2" xmlns="http://www.w3.org/2000/svg" viewBox="0 0 159.27 245.23">
  <defs>
    <style>
      .cls-1 {
        fill: #1d1d1b;
      }
    </style>
  </defs>
  <path class="cls-1" d="M159.27,180.94c0,11.92-4.02,23.09-11.04,32.66-13.27,18.13-37.26,30.55-64.92,31.55-1.22.06-2.44.08-3.68.08H0v-50.13c0-7.82,6.34-14.16,14.17-14.16h21.88c0,19.43,19.52,35.18,43.58,35.18s43.58-15.75,43.58-35.18c0-5.04-1.31-9.83-3.68-14.16l.12-.05-30.26-49.6-5.06-8.29-35.74-58.61c-1.31-2.29-3.56-3.33-5.78-3.33h-5.56C16.68,46.9,0,30.22,0,9.65c0-2.67,1.14-5.08,2.98-6.82C4.83,1.08,7.38,0,10.19,0h102.82c5.63,0,10.2,4.32,10.2,9.65v14.83c0,5.33-4.57,9.65-10.2,9.65h-11c-9.61,0-15.6,9.83-10.8,17.7l60.3,98.87c5.29,8.64,7.76,18.97,7.76,30.24Z"/>
  <path class="cls-1" d="M83.31,245.15v.08h-3.68c1.24,0,2.46-.02,3.68-.08Z"/>
</svg>