<?xml version="1.0" encoding="UTF-8"?>
<svg id="Camada_2" data-name="Camada 2" xmlns="http://www.w3.org/2000/svg" viewBox="0 0 159.27 245.23">
  <defs>
    <style>
      .cls-1 {
        fill: #1d1d1b;
      }
    </style>
  </defs>
  <path class="cls-1" d="M140.69,222.21c-.33.32-.67.63-1.01.95-.53.49-1.07.98-1.62,1.46-.54.47-1.08.92-1.63,1.38-.03.02-.06.05-.1.08-.44.36-.89.72-1.35,1.08-1.28,1-2.6,1.96-3.96,2.89-.61.42-1.24.83-1.87,1.24-.61.39-1.24.78-1.87,1.17l-.06.03c-.61.37-1.24.73-1.87,1.09-.1.06-.2.12-.31.18-.57.32-1.14.63-1.72.93-.05.04-.11.06-.16.09-.49.26-.99.52-1.49.76-.25.13-.5.26-.75.38-.61.3-1.23.6-1.86.88-.61.29-1.23.56-1.85.83-.35.16-.71.31-1.07.45-.49.21-.99.42-1.49.61-.65.26-1.31.51-1.98.76-.09.03-.18.07-.27.1-.71.26-1.43.51-2.15.75-.76.26-1.53.5-2.3.74-.77.24-1.55.46-2.33.68-.77.21-1.54.42-2.31.62-.02,0-.03.01-.05.01-.8.19-1.6.38-2.4.56s-1.61.35-2.43.51c-.68.13-1.37.26-2.07.38-.22.05-.45.09-.68.12-1.55.25-3.11.47-4.69.65-.84.1-1.69.18-2.54.26-1.7.15-3.41.26-5.14.32-.61.03-1.22.05-1.83.06-.62.01-1.23.02-1.85.02-16.09,0-31.06-3.85-43.58-10.48-4.54-2.4-8.76-5.17-12.59-8.26C8.97,214.86,0,198.75,0,180.94c0-22.52,14.35-42.34,36.05-53.81.79-.42,1.59-.83,2.41-1.22.74-.37,1.49-.72,2.25-1.07.21-.09.42-.19.64-.28.57-.26,1.14-.51,1.72-.74.32-.14.64-.27.96-.4.39-.16.79-.32,1.19-.47.45-.18.91-.35,1.38-.52.39-.15.79-.3,1.19-.43.37-.14.75-.27,1.14-.39.52-.19,1.04-.36,1.57-.52.3-.1.61-.19.91-.28.49-.16.99-.31,1.49-.44.39-.12.78-.23,1.17-.34.87-.24,1.75-.46,2.64-.68.82-.2,1.65-.39,2.48-.56.02-.01.05-.02.08-.02.66-.14,1.32-.28,1.99-.4.27-.06.54-.11.81-.15.11-.02.21-.04.32-.06.62-.11,1.24-.22,1.86-.31.85-.14,1.71-.26,2.57-.37.8-.11,1.61-.2,2.42-.29.14-.01.27-.03.4-.04.8-.08,1.61-.15,2.42-.21.04-.01.08-.01.11-.01.75-.06,1.51-.11,2.27-.14.09-.01.18-.02.27-.02l17.41,28.15,1.7,2.75-.21-.06c-.48-.13-.95-.25-1.43-.37-.02,0-.05,0-.08-.02-.52-.12-1.05-.24-1.58-.35-.03-.01-.07-.02-.1-.02-.56-.12-1.13-.23-1.71-.33h-.03c-.44-.08-.89-.15-1.34-.21-.35-.05-.71-.1-1.07-.14-.38-.05-.76-.09-1.14-.13-.5-.05-1-.1-1.51-.13-.58-.05-1.16-.08-1.75-.1-.23-.01-.46-.02-.7-.03-.51-.01-1.02-.02-1.54-.02-24.06,0-43.58,15.75-43.58,35.18s19.52,35.18,43.58,35.18c19.59,0,36.16-10.44,41.65-24.8l19.41,30.89Z"/>
  <path class="cls-1" d="M90.97,148.05l-17.68-28.13c.09-.01.18-.02.27-.02l17.41,28.15Z"/>
</svg>