<?xml version="1.0" encoding="UTF-8"?>
<svg id="Camada_2" data-name="Camada 2" xmlns="http://www.w3.org/2000/svg" viewBox="0 0 159.27 245.23">
  <defs>
    <style>
      .cls-1 {
        fill: #1d1d1b;
      }
    </style>
  </defs>
  <path class="cls-1" d="M159.27,180.94c0,11.92-4.02,23.09-11.04,32.66-13.27,18.13-37.26,30.55-64.92,31.55-1.22.06-2.44.08-3.68.08h-12.96c-3.88,0-7.02-3.14-7.02-7.02v-15.06c0-3.88,3.14-7.02,7.02-7.02h12.96c24.07,0,43.58-15.75,43.58-35.18,0-5.04-1.31-9.83-3.68-14.16l.12-.05-30.26-49.6-5.06-8.29-20.36-33.39-15.38-25.23h0C35.17,28.22,51.01,0,76.78,0h36.23c5.63,0,10.2,4.32,10.2,9.65v14.83c0,5.33-4.57,9.65-10.2,9.65h-11c-9.61,0-15.6,9.83-10.8,17.7l60.3,98.87c5.29,8.64,7.76,18.97,7.76,30.24Z"/>
</svg>